<?xml version="1.0" standalone="no"?>
<!DOCTYPE svg PUBLIC "-//W3C//DTD SVG 20010904//EN"
 "http://www.w3.org/TR/2001/REC-SVG-20010904/DTD/svg10.dtd">
<svg version="1.0" xmlns="http://www.w3.org/2000/svg"
 width="963.000000pt" height="1280.000000pt" viewBox="0 0 963.000000 1280.000000"
 preserveAspectRatio="xMidYMid meet">
<metadata>
Created by potrace 1.15, written by Peter Selinger 2001-2017
</metadata>
<g transform="translate(0.000000,1280.000000) scale(0.100000,-0.100000)"
fill="#000000" stroke="none">
<path d="M3873 12778 c-6 -7 -12 -18 -14 -25 -2 -6 -432 -368 -955 -805 -2492
-2079 -2889 -2412 -2888 -2423 2 -15 3912 -7017 3923 -7025 4 -3 17 -43 29
-90 12 -47 46 -134 77 -194 30 -60 54 -110 53 -111 -2 -2 -41 -22 -88 -45
-176 -88 -426 -223 -444 -240 -11 -11 -16 -25 -13 -34 9 -22 553 -376 578
-376 4 0 14 6 22 14 14 14 17 56 33 416 l7 145 109 -108 c121 -118 277 -229
441 -312 53 -27 96 -49 94 -50 -1 -1 -121 -64 -267 -140 -146 -75 -271 -143
-279 -150 -29 -28 -3 -58 117 -135 386 -246 444 -280 462 -270 25 13 28 40 41
370 6 157 13 286 14 288 1 1 56 -18 123 -43 122 -45 404 -129 610 -181 85 -21
109 -31 100 -39 -7 -7 -92 -82 -188 -167 -289 -257 -285 -252 -237 -282 34
-22 608 -207 632 -204 13 2 21 12 23 30 3 26 -45 281 -93 498 -13 57 -23 106
-21 108 2 1 34 -4 72 -12 75 -16 224 -40 349 -56 81 -10 479 -50 499 -50 6 0
-90 -101 -213 -224 -256 -257 -253 -250 -131 -286 270 -78 544 -150 575 -150
14 0 28 7 32 16 5 13 -59 278 -131 539 -14 49 -24 90 -22 92 6 6 291 -38 561
-87 149 -27 291 -52 318 -57 l47 -8 -97 -74 c-220 -168 -423 -333 -423 -344 1
-27 26 -42 206 -116 387 -159 434 -175 452 -158 14 14 14 27 3 114 -20 160
-71 516 -76 541 -4 18 -1 22 18 22 38 0 431 -67 557 -95 129 -28 400 -106 400
-114 0 -4 -113 -64 -251 -136 -137 -72 -257 -138 -265 -147 -34 -36 -19 -48
398 -310 160 -101 190 -111 202 -70 2 9 10 153 17 320 7 166 17 302 21 302 5
0 73 -25 151 -55 141 -54 162 -56 154 -17 -1 8 -60 36 -132 63 -71 28 -131 52
-133 53 -2 2 18 11 45 19 558 178 553 177 553 204 0 19 -30 49 -303 295 -108
98 -204 178 -211 178 -7 0 -19 -7 -26 -15 -12 -15 -52 -185 -110 -470 -18 -88
-36 -164 -41 -169 -4 -4 -49 6 -101 22 -51 17 -133 42 -183 56 -49 14 -187 61
-305 106 -118 44 -221 83 -229 85 -8 3 64 49 164 103 98 53 183 105 189 115
22 34 23 33 -362 269 -187 114 -234 134 -245 104 -3 -8 -9 -121 -13 -251 -6
-210 -9 -235 -23 -230 -9 4 -142 54 -296 111 -154 58 -281 107 -283 108 -2 2
40 34 92 71 131 93 130 100 -11 167 -296 139 -497 228 -514 228 -29 0 -36 -29
-28 -115 4 -44 8 -103 8 -131 l1 -52 -192 73 c-139 52 -251 104 -398 182 -390
209 -412 218 -418 161 -2 -16 -9 -28 -15 -28 -7 0 -147 51 -311 114 -253 95
-307 119 -348 154 -53 45 -67 49 -97 30 -18 -11 -19 -11 -236 73 l-30 11 43
19 c29 12 42 24 42 38 0 26 -485 471 -514 471 -25 0 -36 -26 -67 -166 -16 -76
-32 -144 -34 -151 -2 -7 -35 1 -99 24 l-95 36 16 31 c20 38 3716 6884 3750
6945 20 36 22 46 11 56 -7 7 -292 241 -633 521 -545 447 -2777 2278 -3147
2582 -75 62 -138 112 -141 112 -2 0 -9 -6 -14 -12z"/>
</g>
</svg>
